<svg id="Capa_1" data-name="Capa 1" xmlns="http://www.w3.org/2000/svg" xmlns:xlink="http://www.w3.org/1999/xlink" viewBox="0 0 386.41 226.67"><defs><style>.cls-1{fill:#fff;}.cls-2{fill:#272727;}.cls-3{fill:url(#Degradado_sin_nombre_306);}</style><linearGradient id="Degradado_sin_nombre_306" x1="296.8" y1="140.15" x2="296.8" y2="107.03" gradientUnits="userSpaceOnUse"><stop offset="0.08" stop-color="#fac711"/><stop offset="0.28" stop-color="#f3f62a"/><stop offset="0.48" stop-color="#f7f42d"/><stop offset="0.78" stop-color="#f8d955"/></linearGradient></defs><title>type god</title><rect class="cls-1" x="182.41" y="44.75" width="181.92" height="181.92" rx="42.76"/><path class="cls-2" d="M388.41,172.94c.38.58.62.89.81,1.23a35.83,35.83,0,0,1,4.6,18c0,48.24-.37,99.33,0,103.48a26.86,26.86,0,0,1,0,4.83s-.14,1.49-.43,3c-.67,3.32-10.4,28.23-32.92,29.11-5,.2-10.09.08-15.14.08q-54.29,0-108.56,0c-12.49,0-22.45-4.9-29.7-15.06a32.53,32.53,0,0,1-6.18-18.81c-.11-8.14,0-16.29,0-24.43,0-12.47-.06-24.93-.08-37.39q0-13.56,0-27.11c0-6.06-.14-12.11,0-18.16.4-15,7.37-25.78,20.89-32.27,5.5-2.64,11.11-5.05,16.64-7.62a29.37,29.37,0,0,1,12.57-2.72q46.4,0,92.79,0a30.45,30.45,0,0,1,7.1.83,39.37,39.37,0,0,1,5.58,2c5.18,2,5.76,2,8.8,3.16a65.93,65.93,0,0,1,16.19,9.69,33.75,33.75,0,0,1,4.71,4.87A32.37,32.37,0,0,1,388.41,172.94Zm-156.75,9.12c.78,8.89,0,24.68,0,49.77,0,11.75-.07,23.5,0,35.25a18.49,18.49,0,0,0,16.87,18.64,91.7,91.7,0,0,0,9.53.16h85.53a18.36,18.36,0,0,0,8-1.63c7.38-3.53,11.14-9.46,11.2-17.6.09-12.05,0-24.1,0-36.15,0-17.52,0-35,0-52.56,0-10.55-8.13-19-18.41-19q-47.14-.09-94.31,0a18.59,18.59,0,0,0-17.34,12.33c-.41,1.11-.94,2.16-1.38,3.26a1.45,1.45,0,0,0-.06.69c.12,1.17.26,2.34.39,3.51l-.45.08C231.43,179.56,231.54,180.69,231.66,182.06ZM353.51,291.42a28.88,28.88,0,0,1-11.13,1.81q-45.37,0-90.74,0a28,28,0,0,1-9.62-1.47c-.73-.27-1-.12-1.34.57-1,2.18-2,4.32-3,6.48-2.78,6-5.59,12.08-8.35,18.13a3.82,3.82,0,0,0,3.07,5.66,30.28,30.28,0,0,0,3.8.23h97.86c3,0,6,0,9-.07,1.23,0,2.45-.15,3.68-.15,5,0,10,.18,15,0,3.42-.13,4.79-2.85,3.34-6q-3.19-6.93-6.38-13.85Zm14.9-123.34a27.88,27.88,0,0,1,1.83,9.91c0,29.48,0,59-.06,88.44a37.18,37.18,0,0,1-1.31,8.74,4.48,4.48,0,0,0,.52,4.06c4.18,6.22,8.24,12.54,12.33,18.83.5.76,1,1.39,2.06,1s.89-1.23.89-2q0-52.42,0-104.85a25.14,25.14,0,0,0-2.1-10.27A26,26,0,0,0,368.41,168.08Zm-142.28.22a1.81,1.81,0,0,0-.46,0,3.76,3.76,0,0,0-.46.2c-10,4.91-15.19,12.91-15.23,24-.09,23.58,0,47.17,0,70.75q0,16.93,0,33.85c0,.84,0,1.66,1,2a1.51,1.51,0,0,0,1.8-.84c4.39-6.75,8.81-13.49,13.18-20.25a1.78,1.78,0,0,0,.2-1.38,30.29,30.29,0,0,1-1.78-11.36q0-39.19,0-78.39c0-.25,0-2.25,0-5,0-1,0-1.86.05-2.37A27.17,27.17,0,0,1,226.13,168.3Zm155,143.1c.19-1.82-.92-3.18-2.34-5,0,0-3.18-4.18-5.61-7.93-1.52-2.34-5.5-8.45-7.38-11.27a2.76,2.76,0,0,0-3.77-1,2.86,2.86,0,0,0-1.14,3.75c.11.28.23.55.36.82.54,1.17,2.33,5.5,10.26,22.27.7,1.47,1.69,3.5,3.43,3.79,1.45.24,2.82-.83,3.58-1.42A6.42,6.42,0,0,0,381.15,311.4Zm-166.84-1.11a11.93,11.93,0,0,0,1,2.35,19.15,19.15,0,0,0,2.32,2.69,2.83,2.83,0,0,0,4.8-.9q5.66-12.18,11.24-24.36a2.87,2.87,0,0,0-1.15-4,2.83,2.83,0,0,0-3.83,1.22q-6.69,10.21-13.33,20.45A14.44,14.44,0,0,0,214.31,310.29Z" transform="translate(-24.89 -107.03)"/><path class="cls-1" d="M226.67,181.42" transform="translate(-24.89 -107.03)"/><path class="cls-3" d="M393.65,135.38c8.74-1.5,15.2-3.66,17.09-7.07a4.66,4.66,0,0,0,0-4.41c-.69-1.46-4.42-7.83-41.52-13-21.73-3-39.27-3.4-56.05-3.76-19.85-.42-34.62.19-39.38.27a350.76,350.76,0,0,0-47.86,3.93c-16.83,2.32-41.52,5.85-43.48,12.64a5.48,5.48,0,0,0,1.25,4.7c1.08,1.2,3.21,2.67,11.47,4.67a108.81,108.81,0,0,0,13.54,2.5C276.13,142.45,362.46,140.77,393.65,135.38Zm7.74-8.4c-.22,3.57-16,6-23.82,7.1-20.6,3-45.43,4-64.24,4.2,0,0,.06,0,.06,0s-14.35.12-25.29,0c-12-.16-21.8-.51-27.65-.75-10.45-.44-19-1.08-36-2.35-12.8-1-23.5-1.9-30.27-6.28-1.13-.74-2.24-1.63-2.17-2.72.13-2.12,4.37-5.07,23.23-7.4a616.5,616.5,0,0,1,162.54,0c-.63.18,23.89,3.51,23.57,7.8A1.14,1.14,0,0,1,401.39,127Z" transform="translate(-24.89 -107.03)"/><path class="cls-2" d="M270.52,243.06a38.79,38.79,0,0,1-12.83,2.3c-6.32,0-11.53-1.62-15.62-5.52-3.6-3.47-5.83-9.05-5.83-15.56.06-12.46,8.62-21.58,22.63-21.58a25.94,25.94,0,0,1,10.41,1.92L268,209a21.51,21.51,0,0,0-9.23-1.8c-10.17,0-16.81,6.32-16.81,16.8s6.39,16.86,16.12,16.86c3.54,0,5.95-.49,7.19-1.11V227.31h-8.49V223h13.76Z" transform="translate(-24.89 -107.03)"/><path class="cls-2" d="M314.48,223.6c0,14.38-8.74,22-19.4,22-11,0-18.79-8.55-18.79-21.2,0-13.27,8.25-22,19.41-22C307.1,202.45,314.48,211.2,314.48,223.6Zm-32.42.68c0,8.92,4.83,16.92,13.33,16.92s13.39-7.87,13.39-17.36c0-8.3-4.34-17-13.33-17S282.06,215.1,282.06,224.28Z" transform="translate(-24.89 -107.03)"/><path class="cls-2" d="M321.49,203.69a78.07,78.07,0,0,1,11.47-.86c7.75,0,13.27,1.79,16.92,5.2s5.89,8.25,5.89,15-2.11,12.4-6,16.24-10.35,6-18.48,6a87.18,87.18,0,0,1-9.79-.49Zm5.39,37a35.27,35.27,0,0,0,5.46.3c11.53,0,17.79-6.44,17.79-17.73.06-9.85-5.52-16.12-16.92-16.12a30.72,30.72,0,0,0-6.33.56Z" transform="translate(-24.89 -107.03)"/><path class="cls-1" d="M40.68,207.33H24.89v-5.7H63.31v5.7H47.45v46.19H40.68Z" transform="translate(-24.89 -107.03)"/><path class="cls-1" d="M82.79,253.52v-22l-16.4-29.87H74L81.33,216c2,3.93,3.54,7.08,5.16,10.7h.15c1.47-3.39,3.24-6.77,5.24-10.7l7.47-14.32H107l-17.4,29.8v22.09Z" transform="translate(-24.89 -107.03)"/><path class="cls-1" d="M112.36,202.24a78.73,78.73,0,0,1,12.86-1c6.62,0,11.47,1.54,14.55,4.32a13.93,13.93,0,0,1,4.55,10.85c0,4.7-1.39,8.39-4,11.09-3.54,3.77-9.31,5.7-15.86,5.7a22.77,22.77,0,0,1-5.39-.47v20.79h-6.7Zm6.7,25a22.76,22.76,0,0,0,5.55.54c8.08,0,13-3.93,13-11.09,0-6.85-4.85-10.16-12.24-10.16a28,28,0,0,0-6.32.54Z" transform="translate(-24.89 -107.03)"/><path class="cls-1" d="M180.2,229.19H160V247.9h22.48v5.62H153.33V201.63h28v5.62H160v16.4H180.2Z" transform="translate(-24.89 -107.03)"/></svg>